<svg width="402" height="127" viewBox="0 0 402 127" fill="none" xmlns="http://www.w3.org/2000/svg">
    <path
        d="M76.255 76.5165C68.263 87.006 56.275 93.8325 42.955 93.8325C19.645 93.8325 3.8275 74.8515 3.8275 52.2075C3.8275 29.064 19.312 11.415 42.955 11.415C51.946 11.415 60.937 14.2455 68.596 18.9075V30.5625H67.597C60.937 20.9055 51.613 13.08 39.4585 13.08C0.331 13.08 6.991 90.1695 48.1165 90.1695C58.939 90.1695 68.0965 83.5095 74.7565 75.5175L76.255 76.5165ZM122.895 82.5105V78.5145C118.899 89.004 110.074 93.4995 101.916 93.4995C92.5915 93.4995 83.9335 87.672 83.9335 78.348C83.9335 57.8685 125.559 61.698 120.064 40.5525C117.9 37.2225 114.403 35.2245 110.407 35.2245C100.084 35.2245 91.9255 45.381 93.091 54.705H85.2655C87.763 42.051 100.584 34.2255 111.573 34.2255C123.727 34.2255 129.555 41.5515 129.555 55.8705V82.8435C129.555 87.339 131.053 89.67 133.051 89.67C134.383 89.67 135.715 88.8375 137.214 87.1725L137.547 87.5055C135.382 91.5015 132.718 93.1665 129.888 93.1665C124.56 93.1665 123.061 88.1715 122.895 82.5105ZM122.895 72.1875V51.2085C122.895 48.378 122.395 45.8805 121.563 43.716C123.228 60.8655 91.426 58.5345 91.2595 78.015C91.2595 86.34 97.087 90.5025 103.747 90.5025C112.072 90.5025 121.563 84.342 122.895 72.1875ZM144.22 81.8445V38.8875C144.22 14.745 161.369 0.758997 176.687 0.758997V7.752C173.357 7.08599 170.36 6.753 167.863 6.753C154.876 6.753 150.88 15.078 150.88 34.725V82.8435C150.88 87.339 152.378 89.67 154.376 89.67C155.708 89.67 157.04 88.8375 158.539 87.1725L158.872 87.5055C156.707 91.5015 154.043 93.1665 151.046 93.1665C145.552 93.1665 144.22 87.8385 144.22 81.8445ZM169.747 81.8445V38.8875C169.747 14.745 186.897 0.758997 202.215 0.758997V7.752C198.885 7.08599 195.888 6.753 193.39 6.753C180.403 6.753 176.407 15.078 176.407 34.725V82.8435C176.407 87.339 177.906 89.67 179.904 89.67C181.236 89.67 182.568 88.8375 184.066 87.1725L184.399 87.5055C182.235 91.5015 179.571 93.1665 176.574 93.1665C171.079 93.1665 169.747 87.8385 169.747 81.8445ZM198.272 25.401C195.442 25.401 193.444 23.5695 193.444 20.739C193.444 17.9085 195.442 16.077 198.272 16.077C201.103 16.077 202.934 17.9085 202.934 20.739C202.934 23.5695 201.103 25.401 198.272 25.401ZM201.935 41.385V82.8435C201.935 87.339 203.434 89.67 205.432 89.67C206.764 89.67 208.096 88.8375 209.594 87.1725L209.927 87.5055C207.763 91.5015 205.099 93.1665 202.268 93.1665C197.107 93.1665 195.608 88.8375 195.275 83.5095V34.725C199.271 34.725 201.935 37.389 201.935 41.385ZM215.808 63.8625C215.808 47.712 228.962 34.5585 245.112 34.5585C261.263 34.5585 274.416 47.712 274.416 63.8625C274.416 80.013 261.429 93.1665 245.279 93.1665C228.962 93.1665 215.808 80.013 215.808 63.8625ZM243.114 36.2235C230.127 36.2235 223.467 49.71 223.467 61.698C223.467 75.1845 231.959 91.668 246.777 91.668C259.764 91.668 266.258 78.1815 266.258 66.1935C266.258 52.5405 257.933 36.2235 243.114 36.2235ZM292.943 41.052V42.5505C297.439 37.389 304.099 34.2255 312.257 34.2255C343.226 34.2255 349.886 93.4995 314.255 93.4995C305.264 93.4995 297.938 90.003 292.943 84.342V89.004C292.943 103.157 285.617 126.966 270.299 126.966V119.973C272.464 120.639 274.462 120.972 276.127 120.972C287.116 120.972 286.283 107.319 286.283 93.1665V34.725H286.783C290.612 34.725 292.943 37.2225 292.943 41.052ZM311.758 35.2245C298.105 35.2245 293.11 51.2085 293.11 62.364C293.11 76.35 296.44 91.335 312.424 91.335C340.396 91.335 332.57 35.2245 311.758 35.2245ZM399.836 70.356L401.168 70.689C397.339 82.5105 387.349 93.666 373.196 93.666C355.714 93.666 344.725 80.1795 344.725 63.363C344.725 47.5455 354.548 34.2255 371.198 34.2255C383.353 34.2255 391.511 44.715 391.511 54.705H352.717C352.217 57.369 352.051 60.033 352.051 62.364C352.051 76.35 359.044 90.003 375.028 90.003C385.517 90.003 395.008 83.5095 399.836 70.356ZM370.699 35.2245C360.376 35.2245 355.048 44.2155 353.05 53.5395C358.211 53.5395 384.185 53.706 384.185 53.5395C384.185 46.5465 380.356 35.2245 370.699 35.2245Z"
        fill="white" />
</svg>